<svg id="Layer_4" data-name="Layer 4" xmlns="http://www.w3.org/2000/svg" xmlns:xlink="http://www.w3.org/1999/xlink" viewBox="0 0 258 544.34"><defs><style>.cls-1{fill:url(#linear-gradient);}.cls-2{fill:url(#linear-gradient-2);}.cls-3{fill:url(#linear-gradient-3);}.cls-4{fill:url(#linear-gradient-4);}.cls-5{fill:url(#linear-gradient-5);}.cls-6{fill:url(#linear-gradient-6);}.cls-7{fill:url(#linear-gradient-7);}</style><linearGradient id="linear-gradient" x1="960" y1="819.75" x2="960" y2="-214.98" gradientUnits="userSpaceOnUse"><stop offset="0" stop-color="#aa771c"/><stop offset="0.25" stop-color="#fbf5b7"/><stop offset="0.39" stop-color="#b38728"/><stop offset="0.57" stop-color="#fcf6ba"/></linearGradient><linearGradient id="linear-gradient-2" x1="933.48" y1="522.68" x2="936.7" y2="522.68" gradientUnits="userSpaceOnUse"><stop offset="0" stop-color="#8b5624"/><stop offset="0.2" stop-color="#f9e381"/><stop offset="0.52" stop-color="#d99e4f"/><stop offset="0.81" stop-color="#f9e381"/><stop offset="1" stop-color="#8b5624"/></linearGradient><linearGradient id="linear-gradient-3" x1="979.25" y1="526.42" x2="982.18" y2="526.42" xlink:href="#linear-gradient-2"/><linearGradient id="linear-gradient-4" x1="1056.12" y1="499.83" x2="1063.7" y2="499.83" xlink:href="#linear-gradient-2"/><linearGradient id="linear-gradient-5" x1="1031.35" y1="523.95" x2="1041.57" y2="523.95" xlink:href="#linear-gradient-2"/><linearGradient id="linear-gradient-6" x1="855.48" y1="499.48" x2="862.98" y2="499.48" xlink:href="#linear-gradient-2"/><linearGradient id="linear-gradient-7" x1="877.54" y1="523.28" x2="888.1" y2="523.28" xlink:href="#linear-gradient-2"/></defs><path class="cls-1" d="M1086.53,434.51c-5-4.91-10.08-9.79-14.89-14.89-9.54-10.12-18.7-20.61-28.43-30.54-8.84-9-18.12-17.59-25.05-28.28a21.16,21.16,0,0,0-1.93-2.22c-9-10.14-18-20.24-26.89-30.46-3.32-3.81-2.89-3.79-.63-8.45,3-6.2,4.78-12.79,0-19-3.66-4.76-7.3-9.65-12.94-12.48-1.17-.58-2.66-1.94-2.74-3-.52-6.84-.78-13.7-.85-20.55,0-1.29,1.31-2.55,1.84-3.89.39-1,.87-2,1.29-3-1.06.08-2.14.11-3.22.09a9.78,9.78,0,0,1-4.5,4.24,11.45,11.45,0,0,0,3.2-4.28,40.79,40.79,0,0,1-5.82-.73,40,40,0,0,1-8.45-2.84,34,34,0,0,1-11.74,4.48,15.12,15.12,0,0,0,1.48,2.56,7.59,7.59,0,0,1,1.5,4c.15,6.69.07,13.38.07,20.06a36.21,36.21,0,0,1-3.14,1.85c-6.33,2.92-10.6,8.15-14.8,13.37a11.24,11.24,0,0,0-2.35,5.79c-.39,5.07-.21,10.16,3.18,14.5a16.66,16.66,0,0,1,1.51,3.14c-4.43,5.74-8.72,11.45-13.16,17-3.57,4.48-7.55,8.64-10.92,13.25A158,158,0,0,1,893,372.2c-8.41,8.49-16.42,17.36-24.66,26q-16.75,17.6-33.63,35.07c-4.16,4.28-5.11,12.61-1.21,17a10.67,10.67,0,0,1,2.85,6.52c.2,2.28.71,4.53,1,6.81.24,1.91.92,3.57,2.83,4.23,2.26.79,2.68,2.43,2.91,4.55,1.44,13.19,3,26.37,4.52,39.55.33,2.92.51,5.75-.88,8.63-.79,1.64-.72,3.84-.59,5.77.73,11.59,1.76,23.17,2.33,34.77a13.29,13.29,0,0,0,4.69,9.81c3,2.76,5.75,5.84,6.71,10.05,1.64,7.17,3.52,14.29,4.92,21.5,2.67,13.81,5.06,27.66,7.58,41.49.54,2.94-.21,5.14-2.33,7.51a72.44,72.44,0,0,0-8.49,11.9,15.8,15.8,0,0,0-1.94,9.47c.58,6.52.91,13.09.86,19.63-.12,13.59-.53,27.17-.88,40.75,0,1.9-.43,3.79-.66,5.72-2.19.42-3.94.88-5.71,1.07a9.6,9.6,0,0,0-7.74,5.25c-2.74,4.7-2.86,9.59-2.11,14.71s3.86,9.3,5.74,14a11.84,11.84,0,0,0,5.41,6.11c8,4.47,16.27,8.52,25.46,10,10.65,1.74,21.29,3.68,32,4.89,13,1.46,26.08,2.3,39.14,3.33,12.79,1,25.5-.76,38.24-1.29,4.74-.19,9.5-.45,14.19-1.1,9.73-1.34,19.47-2.72,29.12-4.54,7.68-1.45,15.52-2.44,22.76-5.8a85.83,85.83,0,0,1,10.1-3.81,13.1,13.1,0,0,0,7.28-6.23,68.29,68.29,0,0,0,4.38-9.32c2-5,3.74-10.16,3.07-15.75-.7-5.92-4.13-9.47-10-10.33-1.75-.26-3.49-.62-5.67-1-.36-5.6-.89-11-1-16.34-.4-16-.53-32.1-1-48.14-.24-9.24-4.2-17-10.41-23.69-1.93-2.07-3-4.21-2.66-7,.55-4.39.92-8.8,1.63-13.16,2-12.28,4.48-24.49,6.11-36.81a28,28,0,0,1,8.15-16.76c6.46-6.58,6.16-6.73,6.52-15.81.48-11.77,1.28-23.54,1.85-35.32.08-1.57.24-3.73-.64-4.66-2.3-2.42-2-5.1-1.64-7.8q2.38-21,5-42c.15-1.18.71-2.88,1.58-3.31,4.53-2.21,4.64-6.54,5-10.45.24-2.9.69-5.41,2.59-7.64a19,19,0,0,0,2.17-3.28C1089.87,443.1,1089.14,437.05,1086.53,434.51Zm-17.89,9.77c-6.55,4.37-13.75,7.41-21.5,10.05-1-3-.21-4.83,1.73-5.7,5.35-2.39,10.8-4.54,16.24-6.73C1066.87,441.19,1067.85,442.15,1068.64,444.28Zm-4.56,9.57c-1.12,1.54-4.4,2.18-6.84,1.34,1-2.37,3.76-4.24,5.71-3.93A1.65,1.65,0,0,1,1064.08,453.85Zm-28-9.82c-3.41-5-3-7.45,1.4-9.46,2.91-1.34,6-2.38,9.23-3.66.66,1.83,1.2,3.14,1.58,4.5a29.94,29.94,0,0,1,.51,3.64Zm24.69-17c1.61,1.17,3.56,2.77,3.93,4.5.5,2.31-2.29,2.75-4,3.54-1.88.88-3.86,1.55-6.24,2.49l-4-8c2.7-1.08,4.6-2,6.61-2.59C1058.26,426.62,1059.94,426.4,1060.76,427Zm-4.78-6.26-7.58,4.32-4.63-13.33C1049.42,413.06,1052.1,417.08,1056,420.74Zm-10.74,5-8.89,3.7c-1.62-4.73-.25-11.27,3.23-15.35C1042.49,417.35,1043.6,421.31,1045.24,425.71Zm-22.44-26.33c1.46.08,3.12-.26,4.36.31,3.85,1.78,7.55,3.88,11.28,5.91a5.6,5.6,0,0,1,1.86,1.55,2,2,0,0,1,.3,1.77,2.68,2.68,0,0,1-1.85,1.22,7.4,7.4,0,0,1-3.29-.84q-6.06-3.24-12-6.75c-.58-.34-.81-1.26-1.2-1.91C1022.44,400.22,1022.62,399.8,1022.8,399.38Zm4.64,66.55c.15.33-.13.87-.24,1.49-2.4.09-2.43-2-3-3.23-5.7-12.16-11.32-24.36-17-36.54q-18.5-39.88-37-79.78c-.63-1.37-1.1-2.83-1.65-4.25l1.13-.54c.38.25.93.42,1.1.77Q999.18,404.87,1027.44,465.93Zm-47.78-1c-5.73,8.37-32.16,9-40.19.34,4.82-1.51,10,1.2,15.61-1.83-4-2.17-7.38-2.06-10.59-2.56a42.2,42.2,0,0,1-10-2.36c.59-.36,1.17-1,1.75-1q23.55,0,47.08,0c.41,0,.81.37,2.21,1.07-6.82,3.3-14.25.55-20,4.92C970,466.15,974.92,464.09,979.66,464.89ZM950.23,339.2h18.1C964.92,342.71,954.24,342.87,950.23,339.2Zm23,90.89a12.32,12.32,0,0,1,.92,3.07h-11.6V416.31a15,15,0,0,1,2.51,2.18Q969.22,424.22,973.2,430.09Zm-11.06-23.61c0,1.56-.42,3.09-2.28,3.2-2.19.14-2.69-1.5-2.71-3.26-.06-4.25-.22-8.5,0-12.73.09-1.56,1.23-3.07,1.89-4.6h1.19c.65,1.55,1.75,3.07,1.84,4.65C962.36,398,962.19,402.23,962.14,406.48Zm-5.4,9v17.63h-12A96.2,96.2,0,0,1,956.74,415.52Zm-11.36,23.32c3.51.31,7.11-.33,11-.55v9.09a135.26,135.26,0,0,1-24.16.18C935.71,442.27,938.88,438.28,945.38,438.84ZM963,447.56c-.17-3.1-.33-5.81-.52-9.09,6.08-.1,11.9-.31,17.24,1.29,2.82.85,4.84,4.41,7.22,6.75l-.76,1.05ZM981.41,323a9.84,9.84,0,0,1-3.86,6.76C977.1,326.25,978.31,324.53,981.41,323Zm1.36-5.16c.8-2.09,1.6-4.19,2.72-7.1C986.47,315,986.08,316.05,982.77,317.87Zm-9.66-27.71c5.39,3.41,10.52,7.15,13.67,12.9.44.79.22,1.94.36,3.62-2.9-3.49-4.88-6.28-7.27-8.66s-5.21-4.4-8.14-6.83C972.31,290.74,973,290.06,973.11,290.16Zm5.87,14.4a10,10,0,0,1,1.44,6c-.39,7.16-4.45,12.87-8.13,18.66-.58.91-2.14,1.46-3.34,1.68a52.15,52.15,0,0,1-18.52,0c-1.2-.22-2.77-.74-3.36-1.64-3.62-5.62-7.36-11.22-8.19-18.15a9.35,9.35,0,0,1,2.55-8.07c2.71-2.87,5.27-5.87,9.48-7,6.12,5.14,12.19,5.11,18.4,0C973.47,297.73,976.44,301,979,304.56Zm-37.74,24-1.42.53c-.88-1.68-1.77-3.35-2.65-5C940.3,324.63,941.06,326.45,941.24,328.6Zm28.58-43.54c.18,4.35-1.63,7.63-5.8,10.79Zm-5.73-1.2h-7.76V268.62h7.76ZM952.82,260c.66-2,1.87-3.78,5.06-3.57-5.4,6.78-5.18,14.69-6,23.43-.95-1.51-1.57-2.05-1.62-2.64C949.77,271.26,951,265.55,952.82,260Zm-21.55,46.71c.22-6.39,4.74-8.89,8.06-12.2,6.46-6.44,14.27-8.34,24.3-7.25-1.57,1.13-2.16,1.81-2.87,2a10.5,10.5,0,0,1-2.92.13c-12-.39-18.93,7-24.83,16C932.85,305.65,932.52,305.77,931.27,306.68Zm4.68,11.5c-3.33-1.53-3.33-1.53-3.59-6.26l1-.37Zm-10.48,72.89c1.09-2.37,2.67-4.51,3.75-6.88,2.45-5.34,4.67-10.78,7.09-16.13,3.5-7.76,7.09-15.49,10.69-23.2a10.2,10.2,0,0,1,1.69-2l1.08.57a10.94,10.94,0,0,1-.39,2.17c-6,15-54.69,118.51-57.32,121.62-1.63-1.39-.36-2.71.16-3.84,4.78-10.42,9.65-20.8,14.44-31.22C913,418.47,919.16,404.75,925.47,391.07ZM879,407.14a1.38,1.38,0,0,1,.65-.7c4.54-2.47,9-5,13.69-7.27.77-.36,2.23.72,3.37,1.13-.48.88-.74,2.12-1.49,2.59-3.44,2.14-7,4.12-10.55,6a30.93,30.93,0,0,1-4.26,1.56c-.62-.54-1.39-.93-1.71-1.55C878.45,408.49,878.79,407.73,879,407.14Zm4.65,28.39c2.11,1.18,2.62,5.08,1,6.94a3.59,3.59,0,0,1-2.93.79,25.48,25.48,0,0,1-11.28-5.18c.56-2.13,1.12-4.28,1.76-6.69C876.52,431.79,880.13,433.59,883.62,435.53Zm-9.43-9.64c1-4.34,3-7.92,4.94-11.61,3.68,2.48,5.58,9.82,3.93,15.1Zm1.4-14.31c-1.61,4.65-3,8.68-4.65,13.48l-7.5-4.07C866.85,417.13,869.79,413.36,875.59,411.58Zm-20,17.57c2.51-2.79,4.14-3.2,7.77-1.84,1.65.62,3.25,1.36,5.45,2.29-1.42,2.9-2.56,5.19-3.95,8-3.07-1.3-5.94-2.32-8.63-3.71C854,432.78,853.89,431,855.57,429.15ZM853.94,443c1.21-.37,2.65-1.34,3.6-1,5.51,2,11,4.23,16.3,6.69,2,.94,3,2.89,1.46,5.51a102.7,102.7,0,0,1-21.48-9.8Zm12.7,12.25c-2.66,1.38-6.82.48-7.5-1.62-.43-1.35.39-2.57,1.69-2.2C863.06,452.07,865.59,452.61,866.64,455.24ZM849.15,472c6.8,2.3,13.16,4,17.63,10.07,6.86,9.36,14.34,18.25,21.64,27.27,4.07,5,3.26,11,3.57,16.8a3.76,3.76,0,0,1-1.07,2.15c-3.63,4.4-7.31,8.76-11.15,13.35-7.45-2.4-14.25-4.71-21.14-6.73-2.68-.79-3.57-2.33-3.82-4.91-.8-8.63-1.76-17.24-2.66-25.85q-1.5-14.38-3-28.78C849.07,474.41,849.15,473.45,849.15,472Zm26.39,10.74c11.06-.05,16.1,6.21,15.07,19C884.82,495.68,880.43,489.16,875.54,482.72Zm-5,70.55c-.17-.07-.06-.85-.11-1.7,7.32.31,13.26,4.55,20,6.09.77.18,1.35,1.21,2.9,2.68-2.08.31-3.09.79-3.81.52C883.14,558.42,876.84,555.86,870.54,553.27ZM889.38,568l-10.6-3.66c.26-2.51,1.3-3.11,3.08-2.8C885.71,562.15,888.23,563.94,889.38,568Zm-24.2-23a36.38,36.38,0,0,1-5.9-2.33c-.73-.4-.93-1.77-1.37-2.69a13.52,13.52,0,0,1,2.57-.72,4.55,4.55,0,0,1,1.88.5q15.1,5.7,30.22,11.39c1.6.6,3,1.2,2.29,3.8C884.85,551.55,875,548.27,865.18,545Zm21.48-.82,5.64-7.64,1.25.44c.43,2.66.87,5.33,1.45,8.86ZM871.13,586c-4.5-5-9-10-13.22-15.14-5.09-6.24-6.62-13.71-6.58-21.57,0-.54.49-1.07,1.27-2.63,1,3.22,2.08,5.44,2.27,7.73a17.37,17.37,0,0,0,4.08,9.79c5.36,6.58,10.72,13.18,16.25,19.62a12.63,12.63,0,0,0,4.48,2.83q10.73,4.85,21.54,9.47c2.37,1,3.8,2.33,3,5.4a18.76,18.76,0,0,1-2.34-.69c-8.84-3.85-17.69-7.67-26.47-11.64A13.52,13.52,0,0,1,871.13,586Zm94.61-96.66c4.84,0,10,0,15.27,0a11.67,11.67,0,0,0,2.93.12c4.93-1.36,7.77,1.41,10.72,4.75a148.19,148.19,0,0,0,12.13,12.17,14,14,0,0,1,5.13,11.1c0,2.29,0,4.59-.21,6.87a3.82,3.82,0,0,1-1.28,2.42c-4,3.09-8.11,6.05-12.19,9.05-5.39,4-10.76,8-16.23,11.86a7,7,0,0,1-3.59,1.09c-3.25.15-6.52.05-10,.05,2-4.25,4-7.92,5.32-11.84a20.57,20.57,0,0,0,.56-13,45.86,45.86,0,0,1-1.83,5.46,2.29,2.29,0,0,1-1.93,1c-.59-.12-1.49-1.13-1.42-1.63.73-5.13-1.57-9.63-2.82-14.34-1.07-4,.86-7.35,2.37-10.77.57-1.28,1.4-2.45,2.55-4.43-6.05,1.27-9,5.38-11.74,9.12s-4.59,8-7,12.35c-2.76-.85-2.33-3.36-2.21-5.49s.68-4.46,1.07-6.86c-10.28,5.63-10.19,24.87.11,39.89l-5.3.45c-4.29.37-8.07,0-11.72-3.2-6-5.24-12.69-9.77-19.13-14.54-2.23-1.65-4.6-3.12-7.53-5.1,0-3.84-.21-8.22.12-12.56a8.37,8.37,0,0,1,2.41-4.59c5.86-6.18,11.85-12.23,17.87-18.24a4.7,4.7,0,0,1,2.94-1.26c9.79-.07,19.59,0,29.38,0a6.22,6.22,0,0,1,1.57.5c-.55,2-1.08,3.92-1.72,6.21C964.57,495.29,963.51,491.39,965.74,489.35Zm76,182.35c.31-.17,1.19.71,2.59,1.6-2.07,1.17-3.49,2.06-5,2.72-.18.08-.89-1-1.35-1.62A32.84,32.84,0,0,1,1041.69,671.7Zm-9.07,2.36a8,8,0,0,1-1.83.22,2.14,2.14,0,0,1-.52-1.23,2.86,2.86,0,0,1,1-2c3.22-1.95,6.52-3.75,9.81-5.58.28-.16.67-.38.92-.3.7.25,1.7.47,1.93,1a2.21,2.21,0,0,1-.48,2.1C1039.87,670.29,1036.24,672.16,1032.62,674.06Zm6.89-10.26c-4.89,2.59-10.06,4.63-15.12,6.88-1.64.73-3.16.83-4.48-1.3.59-.73,1.1-1.84,2-2.33,5.52-3.13,11.07-6.23,16.72-9.14,2.13-1.09,4.56-1.94,6.86.4C1044.43,661.25,1041.79,662.59,1039.51,663.8Zm5.35-38.07c.59,4.24-.58,7.79-1.25,11.35-.15.76-1.2,1.51-2,1.93-2.59,1.34-5.27,2.52-8.76,4.16.49-4.85.89-8.74,1.32-13Zm-10.1,0c.4-5.23.74-9.69,1.13-14.69l12.68-5c-.76,5.06-1.31,9.2-2.06,13.3a3.45,3.45,0,0,1-1.71,2.11C1041.75,622.87,1038.6,624.1,1034.76,625.71Zm3.27,23.7a18,18,0,0,1,3.42-.86l.52,1.06a39.34,39.34,0,0,1-3.82,2.52c-6.55,3.36-13.22,6.52-19.71,10a27.92,27.92,0,0,1-14,3.68c-6.7-.12-13.41.34-20.12.53a9.32,9.32,0,0,1-2.9-.24,1.93,1.93,0,0,1-1-1.5c0-.52.5-1.42.92-1.51a24.42,24.42,0,0,1,4.36-.44c6.22-.15,12.45-.42,18.67-.3,5.62.1,10.56-2,15.46-4.22C1026,655.31,1032,652.27,1038,649.41Zm-52.9,38.2c-1,1.5-2.37,2.2-4.46.87V669.83h9.16C990.74,676.45,988.79,682.25,985.13,687.61Zm-5.24-66.83c0-5.14-.76-6-6-6q-14.48-.13-29,0c-5,0-5.74.85-5.74,5.7,0,10.65.09,21.3.08,31.95,0,1.92-.34,3.84-.5,5.51a4.78,4.78,0,0,1-.86.41c-11,1.33-12.18.6-14-10.06-1.25-7.4-2.62-14.91-.2-22.35,2.08-6.4,5.08-12.23,12.16-14.28a42.15,42.15,0,0,1,8.73-1.11,182.45,182.45,0,0,1,35.28.65,13.07,13.07,0,0,1,9.2,5,28.83,28.83,0,0,1,5.93,12.75c1.41,7.86-.34,22.08-4.1,29.58l-11.08.6C979.89,645.66,979.91,633.22,979.89,620.78ZM974,663.13a10.71,10.71,0,0,1-.29,1.39c-3.67.78-4.37.26-3.77-2.79.73-3.69.73-3.69-1.39-7,1.23-.63,2.37-1.6,3.59-1.72,1.64-.18,3.38,1.87,2.52,2.58C971.53,658.15,974.14,660.67,974,663.13ZM962.37,637.7h10.35v9.94H962.37Zm-.11-4.42c-.16-3-.31-5.75-.49-9.1h10.9v9.1Zm-5.48-.06H946.43v-9.05h10.46C958.08,627.28,957.41,630.09,956.78,633.22Zm.09,3.9v10.47H946.44v-9.8ZM879.43,668.4a2.37,2.37,0,0,1-.79-2c.11-.58,1-1,1.41-1.39a12.6,12.6,0,0,1,1.76.57c3.13,1.75,6.3,3.45,9.34,5.35.62.39.76,1.56,1.12,2.37-.84.24-1.9.94-2.49.66C886.26,672.22,882.81,670.35,879.43,668.4Zm5.24,6.59c-.65.35-1.61,1.17-1.88,1a14.57,14.57,0,0,1-3.33-3.08c-.24-.31.51-1.39.8-2.12l1.44.42Zm-6.33-14.69c-.53-.47-.73-1.33-1.48-2.76,2-.17,3.71-.77,5-.33,7.48,2.49,14.07,6.69,20.44,11.25.2.14.18.59.3,1a2.51,2.51,0,0,1-3.51,1.52C891.86,668.07,884.38,665.56,878.34,660.3Zm-.42-38.82a3.38,3.38,0,0,1-1.73-2.12c-.77-4.12-1.32-8.28-2.09-13.4,4.2,1.71,7.51,3,10.74,4.42a3.29,3.29,0,0,1,1.73,2.06c.58,4.15.94,8.32,1.46,13.33C884.13,624.14,881,622.92,877.92,621.48Zm10.85,11.39c.4,3,.57,6.1.92,10.24-3.62-1.7-6.42-2.92-9.11-4.34a3.58,3.58,0,0,1-1.73-2.14c-.64-3.31-1-6.67-1.58-10.47,4.05.48,7.1,2.25,10.16,3.81C888.19,630.36,888.64,631.83,888.77,632.87Zm-7.9,19.07c-1.43-.73-3.4-1.23-3.42-4.09,1.71.65,3.06,1,4.31,1.65,5.16,2.45,10.38,4.79,15.41,7.5a45.66,45.66,0,0,0,22.57,5.29c4.25,0,8.5,0,12.75.05,1.15,0,2.3-.05,3.43,0,1.34.11,2.91.39,2.62,2.1-.1.62-1.68,1.39-2.6,1.4q-12.48.11-25-.08a10.23,10.23,0,0,1-4.26-.85Q893.72,658.57,880.87,651.94Zm25-18.53-13.37-5.7c-.42-4.81-.81-9.33-1.28-14.8,4.79,2,9,3.59,13.06,5.42a3.07,3.07,0,0,1,1.52,2.22C906,624.59,905.91,628.64,905.91,633.41Zm1,6.56c.2,3.06.07,6.14.07,9.56a7.79,7.79,0,0,1-2.7.29c-9.53-2.65-10.69-4.15-11.07-14.06,0-1,0-1.89,0-3.49,4.37,1.8,8.28,3.3,12.07,5.07A3.64,3.64,0,0,1,906.89,640Zm21.2,30h9.8c.9,2.87,1.07,13.1.24,19-2.37,1.62-4,.31-5.28-1.56A26.87,26.87,0,0,1,928.09,670Zm18.24-108.84c-5.55-.15-11.11-.26-16.65-.66A112,112,0,0,1,918,558.91c-2.31-.4-4-1.55-2.73-5,3.82-.14,7.86-.4,11.89-.41q32.19,0,64.37,0c4.21,0,8.42.23,13.1.37-1,4.79-1.29,5-5.12,5.61a126,126,0,0,1-25.44,1.69c-1.81-.08-3.75-.22-4.13,2.75a15.65,15.65,0,0,0,3,.7c6,.2,12.11.32,18.16.45a40.5,40.5,0,0,1,4.41,0c1.22.15,3.23.47,3.39,1.1a4.72,4.72,0,0,1-.89,3.89,107.84,107.84,0,0,1-10.38,9.68c-5.58,4.4-12.47,5.88-19.25,6.86-17.25,2.48-32-2.53-43.49-16a8.9,8.9,0,0,1-1.13-1.6c-1.3-2.39-.65-3.79,2.1-4,3.42-.2,6.86,0,10.29-.14,4.37-.11,8.73-.3,13.11-.46C949.45,561.77,948.23,561.21,946.33,561.15Zm-31.74-12.89c-3.6-.23-4.18-.9-4.59-4.37-.33-2.72-.49-5.46-.81-9.21l16.31,12.71-.29.91C921.67,548.3,918.12,548.47,914.59,548.26Zm39.09-9.51c-2.09-3.18-3.85-6.36-3.79-10.81,7.06,4.77,6.47,3.64,12-1.11l1.53,10.34,3.46.18a14.14,14.14,0,0,1-1,1.81C961.6,544.38,957.35,544.34,953.68,538.75ZM994,547.32l16.15-12.69c-.34,3.89-.65,6.89-.84,9.9a3.5,3.5,0,0,1-3.74,3.64c-3.7.11-7.41,0-11.11,0C994.26,547.91,994.11,547.61,994,547.32Zm-9.47,59H933.67c-.3-4.3,2.09-6.35,5.32-7.57,10.42-3.95,21.09-5.85,32.19-3.5a52.27,52.27,0,0,1,8,2.13C983.91,599.24,985.38,602,984.49,606.35ZM1016,638.81c.08-.61,1-1.33,1.64-1.62,3.7-1.62,7.46-3.13,12.09-5.05-.34,4.44-.56,8-.94,11.51a2.83,2.83,0,0,1-1.14,2c-3.57,1.78-7.23,3.4-11.46,5.34C1014.74,646.37,1015.5,642.56,1016,638.81Zm14.15-11.06-13.53,5.73c0-5-.11-9.31.09-13.62a3.51,3.51,0,0,1,1.85-2.51c3.87-1.59,7.85-2.91,12.81-4.69C1030.86,618.59,1030.5,623.09,1030.12,627.75ZM1018,555.59c-.56,7.83-1.28,15.64-2.09,23.45a6.45,6.45,0,0,1-1.69,3.27c-3.37,3.77-6.85,7.45-10.34,11.13-3,3.15-7,2.72-10.73,3.35l-.54-1c2.74-3.81,5.41-7.69,8.29-11.41a4.89,4.89,0,0,1,3-1.28c6-.89,6.6-1,7.58-7,1.18-7.26,2-14.59,2.61-21.91,1.8-20.54,3.43-41.08,5.13-61.62.16-1.87-.24-4,1.88-5.12,2.39.72,1.94,2.54,1.83,4.06-.71,10-1.39,19.92-2.27,29.86-.67,7.5-1.75,15-2.39,22.45C1017.89,547.73,1018.27,551.69,1018,555.59Zm-5.37-53.82-1,.42L999.41,490.3a21.36,21.36,0,0,1,13.83.29ZM907.38,502c-1.75-3.77-1.13-7.57-1-12.23h12.73C917.78,492.73,913.52,497.21,907.38,502Zm-.29,69.93a33.68,33.68,0,0,0,.81,4.33c1.25,5.62,1.64,5.93,7.28,6.86a4.9,4.9,0,0,1,2.87,1.33c2.94,3.68,5.69,7.51,9.24,12.26-6.16-.29-10.7-1-13.86-5.68a35.9,35.9,0,0,0-7.06-7.46,8.51,8.51,0,0,1-3.19-6.74c-.54-9.61-1-19.22-1.83-28.82s-1.92-18.86-2.75-28.31-1.44-18.92-2.16-28.38c-.11-1.48-.32-3,1.41-3.77,2.33.34,2.09,2.18,2.21,3.75.62,7.83,1.13,15.67,1.82,23.49Q904.42,543.37,907.09,571.93Zm-27,181.27c-4.48-.55-7.79-1.12-10.77-4C873.49,747.41,877.09,748.6,880.08,753.2Zm71.47-27.87c1,0,2-.16,2.92-.09,1.43.1,2.85.35,4.78.6a49.39,49.39,0,0,1,.34,7.23,3.8,3.8,0,0,1-2.17,2.74,14.6,14.6,0,0,1-10.44-.64c-2.9-1.42-3.44-3.77-1.47-6.38C947,726.82,948.79,725.21,951.55,725.33Zm-2.44-6.77c.07-3.76,2.06-5.63,5.92-5.57,3.53.06,5,1.61,5,5.21,0,3.13-2.36,5.12-5.89,5.06C950.86,723.2,949.06,721.51,949.11,718.56ZM967,740.15c5.53-.52,11-1.38,16.54-2.15,1.43-.2,2.9-1,4.12,1.22-3.62,3.54-8.64,3.29-13,3.92-13.3,1.93-26.52,1.45-39.78-3.24,1.54-3.14,3.22-2,4.74-1.78C948.66,739.51,957.73,741,967,740.15Zm1.29-16.89c-3.61-.11-5.57-2-5.49-5.4.08-3.53,1.62-5,5.24-4.87s5.75,2.28,5.65,5.91C973.57,721.63,971.43,723.36,968.24,723.26Zm7.4,4c1.81,1.3,3.4,3.27,2.29,5.39-.79,1.49-2.91,2.28-4.47,3.34a2.37,2.37,0,0,1-1,.18c-8.72,1.34-10.87-1.11-8.57-10.79a73.51,73.51,0,0,1,7.88.08A8.72,8.72,0,0,1,975.64,727.3Zm-16.58,20.53c9.73.84,19.16-2,28.74-3,3.65-.39,3.64-.46,3.66,3.88-17,3.84-42.05,4-60.63-.05.65-4.25.65-4.24,3.91-3.83C942.84,745.87,950.93,747.12,959.06,747.83Zm-11.59,7.52c12.87.58,25.79,1,38.62-1,4-.63,8-1.33,12.07-1.85,1-.13,2,.3,3.53.58-.77,1-1,1.82-1.5,2-5.89,1.84-11.6,4-18,3.91-14-.29-28.12-.24-42.18,0-6.6.13-12.3-2.49-18.52-4.09.57-2.89,1.88-2.56,3.21-2.39C932.26,753.52,939.84,755,947.47,755.35Zm84.14-7.33c-.11,0-.14-.28-.39-.81,3-3,7.18-4,11.11-5.3,1.11-.37,2,1.26,1.42,2.38C1042.56,746.62,1034.13,749.22,1031.61,748Zm3.76,9.78c-4.47,1.78-8.84,4.35-14.56,2.66.58-.85.76-1.42,1.1-1.54q7.3-2.55,14.65-5c.2-.06.54.3.85.49C1037.92,756.26,1036.71,757.27,1035.37,757.8Zm-10.47-18.28c1.69-3.29,4.25-3.25,7-2.65C1030.25,739.41,1028.3,740.92,1024.9,739.52Zm.43,8.94a2.59,2.59,0,0,1,1.42,1.12,2.07,2.07,0,0,1-.4,1.72c-2.71,3.18-14.38,5.64-18.31,3.9-.22-.09-.3-.53-.63-1.17.47-.53.73-1.09,1.11-1.2,5.12-1.47,10.25-2.89,15.38-4.3A2.51,2.51,0,0,1,1025.33,748.46Zm-16.85,15.42q-6,1-12.09,1.94c-14,2.13-28.06.59-42.08,1.15a195,195,0,0,1-34.67-2,55.52,55.52,0,0,1-6.24-1.24c-1.47-.38-2.81-1.07-2.06-3.74,10.93,1.07,21.94,2.58,33,3.11,11.25.55,22.56.55,33.81,0,11.09-.54,22.14-2.05,33.32-3.15C1011.94,762.93,1010.31,763.57,1008.48,763.88Zm-3.75-17.29c-1.79.28-3.81,1.4-5.28-1.29.64-.53,1.15-1.27,1.81-1.44q9.47-2.37,19-4.54c.46-.1,1.08.44,1.67.7C1019.77,743.33,1015.82,744.81,1004.73,746.59Zm-82.92.28a1.38,1.38,0,0,1-.94.16c-6.75-1-13.53-1.93-19.6-5.36-.31-.17-.34-.83-.9-2.39a38.09,38.09,0,0,1,4.82.46c5,1.19,10.08,2.48,15.11,3.76a4.08,4.08,0,0,1,1.79.72,2.42,2.42,0,0,1,.63,1.63C922.72,746.2,922.19,746.61,921.81,746.87Zm-19.72,2.46c3.62,1,7.24,1.9,10.81,3,.89.28,1.58,1.21,2.64,2-.83.66-1.17,1.17-1.58,1.22a25.6,25.6,0,0,1-17.29-4,2.23,2.23,0,0,1-.74-2,2.32,2.32,0,0,1,1.85-1.14A21.4,21.4,0,0,1,902.09,749.33Zm-.34,10-.35,1.22c-5.21,1.74-9.66-1-14.24-2.79-1.31-.52-1.23-.72-1.75-4Zm-11.89-22.5c5.23-.69,6-.32,7.37,3C894.26,740.63,892.19,739.48,889.86,736.82ZM891.77,748c-1.26.45-2.08,1.08-2.64.89a83.62,83.62,0,0,1-9.11-3.52c-.67-.32-.8-1.81-1.18-2.76a7.45,7.45,0,0,1,2.65-.41A22.86,22.86,0,0,1,891.77,748Zm172.5,4.81c.83.71,1.07,2.69.82,4a6.93,6.93,0,0,1-4.65,5.27c-17.89,6.89-36,12.82-55.07,15.81-14.71,2.3-29.43,1.09-44.12,2.39-12.27-.46-24.61-.3-36.8-1.51a197.7,197.7,0,0,1-56.81-14.78c-2-.82-4-1.4-6-2.17-2.76-1.07-3.94-3.38-4.3-6.1s1.27-4.09,3.86-3.57a6.81,6.81,0,0,1,1.77.79c11.16,6,23.12,9.9,35.12,13.74,8.48,2.7,17.36,2.91,26.07,4.22,15.15,2.29,30.35,2.18,45.58,2,10.51-.11,20.89-1.4,31.32-2.31a137,137,0,0,0,43.47-11.15c5.23-2.3,10.42-4.67,15.72-6.79C1061.44,752.14,1063.46,752.08,1064.27,752.78Zm-11.58-4.69c-1.19,3.44-5.18,5.09-10.61,4.07C1045.66,749,1048.73,747.83,1052.69,748.09Zm-1-72a3.49,3.49,0,0,1-.34,3,15.93,15.93,0,0,1-4.4,3.06c-10.89,5.35-21.88,10.38-34,12.36-4.61.76-9.11,2.23-14,3.47,2.46,12.07,7.54,23,8.61,35.32-3.07,0-3.69-1.71-4.24-3.89-2.54-10-5.21-20-7.84-29.93a5.26,5.26,0,0,0-.52-1,12.37,12.37,0,0,0-8.45-1c-1.21.31-2.59-.07-3.89-.07l-43.07.11H928.29a20.31,20.31,0,0,0-1.29,2.74q-3.79,14.49-7.53,29c-.54,2.1-1,4.19-4.33,3.94,1.17-12.06,6-23.07,8.65-35.23-4.24-1.09-8.31-2-12.34-3.19-7.53-2.13-15.14-4.09-22.53-6.67-5.07-1.78-9.86-4.4-14.67-6.84-2.85-1.45-3-1.91-3.34-4.88,1.32.51,2.51.89,3.63,1.41,14,6.53,28.62,11.24,43.41,15.5,9,2.59,18.23,1.66,27.37,1.71,8.84,0,17.67-.32,26.51-.4,7-.07,14.08.41,21.06-.09a84.26,84.26,0,0,0,17.36-3c12.24-3.57,24.51-7.24,35.38-14.28a12.47,12.47,0,0,1,3.52-1.71C1049.93,675.39,1051.5,675.69,1051.64,676.12Zm16.53-117.47c-.5,5.6-1.58,10.8-6.07,15-2.95,2.74-5,6.43-7.54,9.65a21.11,21.11,0,0,1-9.21,7c-7.46,2.91-14.72,6.32-22.06,9.51-1.49.65-3,1.25-4.68,1.94-1-2.92.09-4.36,2.57-5.46,6.71-3,13.24-6.42,20.05-9.14,6.17-2.46,11.11-6.1,14.59-11.73a17.76,17.76,0,0,1,1.17-1.57c5.56-6.91,9.23-14.56,9.25-23.64a7.8,7.8,0,0,1,.45-1.85l1.12,0A37.64,37.64,0,0,1,1068.17,558.65Zm-42.89-6.84a13.16,13.16,0,0,1,3.63-1.43c7-2.27,14-4.48,21-6.81,3.4-1.14,6.72-2.53,10.09-3.77,2.32-.86,2.4-.83,5.58.71-1.6,1.1-2.54,2.09-3.68,2.48-12.33,4.13-24.7,8.16-37.05,12.22l-.76-.84C1024.47,553.49,1024.61,552.29,1025.28,551.81Zm-.8-5.76c.49-3.65.89-6.58,1.29-9.5l1-.25,6,7.82Zm7,14.59c-.74.27-1.79.57-2.31.25s-.76-1.4-.88-2.18c0-.25.62-.76,1-.9q9.45-3.19,18.94-6.29c.35-.11.86.26,2,.64-1,1-1.59,1.91-2.42,2.24C1042.45,556.56,1037,558.61,1031.5,560.64Zm9.74,3.29c-3,1.71-6.13,3.25-10.15,3.2,0-.86-.22-1.84,0-2a64.38,64.38,0,0,1,6.76-3.48C1039.74,560.87,1041,561.54,1041.24,563.93Zm22.18-29.76L1040,541.65c-1.27-1.29-2.65-2.62-3.93-4-1-1.1-1.73-2.39-2.73-3.47-8.64-9.38-6.21-7.36-5-19.91.17-1.62,1.37-3.27,2.43-4.64,2.79-3.6,5.9-6.95,8.65-10.57,5.54-7.27,10.91-14.66,16.41-22a5.68,5.68,0,0,1,2.25-1.75c3.88-1.63,7.8-3.13,12.5-5C1068.38,492.08,1066.63,513.05,1063.42,534.17ZM1028,501c.64-4,1.2-7.93,2-11.87.62-3.19,2.73-5,5.87-5.83,2.8-.75,5.52-1.8,8.28-2.72.24.25.49.5.73.76-5.19,6.76-9.94,13.87-15.88,20Zm48.31-39.2-47.71,18.28a40.64,40.64,0,0,1-14.81,2.78q-54.33-.11-108.65,0a38.43,38.43,0,0,1-13.87-2.57c-16.07-6.12-32.09-12.37-48.19-18.41-3.16-1.18-3.06-3.26-2.83-6.39,2.47.93,4.58,1.67,6.64,2.54,6.32,2.64,12.59,5.42,18.94,8,8.33,3.37,16.84,6.35,25,10a32.57,32.57,0,0,0,13.68,2.68c38.68-.09,77.35,0,116-.06,2.47,0,5-1.17,7.41-2.13,7.42-3,14.78-6.15,22.16-9.24,6.34-2.65,12.66-5.34,19-7.94,3.13-1.29,6.33-2.41,9.6-3.64C1079.26,460.53,1079.2,460.71,1076.31,461.81Z" transform="translate(-831 -254.24)"/><path class="cls-2" d="M936.7,514.19c-.28,2.73-.79,5.47-.8,8.21s.47,5.74.76,8.86c-3.87-2.7-4.21-11.3-1-17.17Z" transform="translate(-831 -254.24)"/><path class="cls-3" d="M979.25,521.42c3.49,2.84,3.78,5.25,1.33,10C980.06,527.5,979.65,524.46,979.25,521.42Z" transform="translate(-831 -254.24)"/><path class="cls-4" d="M1056.12,488.42c4.19,1,6.17,3.43,7.14,8.09,1.23,5.89-.23,12.28-3.41,14.72-2.13-1.08-1.45-3-1.25-4.67s.75-3.5.94-5.27c.4-3.64.25-7.16-2.43-10.1C1056.65,490.67,1056.59,489.78,1056.12,488.42Z" transform="translate(-831 -254.24)"/><path class="cls-5" d="M1041.57,532.69c-3.09,1.88-4.42-.55-5.69-2.07-4-4.73-5.65-10-3.75-16.07,2.52-.23,2.87,1.29,2.71,2.49-.79,6,2.1,10.34,6.09,14.25C1041.15,531.5,1041.2,531.87,1041.57,532.69Z" transform="translate(-831 -254.24)"/><path class="cls-6" d="M861.19,511.11c-2.66,1.11-3.58.15-4.32-1.33-2.83-5.63-1.12-17.39,3.26-21.75.4-.4,1.14-.46,1.69-.67,1.65,1.35,1.34,2.7.33,3.93-3.15,3.83-2.74,8.19-2,12.62C860.48,506.28,860.82,508.65,861.19,511.11Z" transform="translate(-831 -254.24)"/><path class="cls-7" d="M878.77,533.58c-1.37-1.47-1.8-3.07-.2-4.64,4.2-4.12,5.92-9.24,6-16,1.41,1.14,2.52,1.59,2.85,2.37C889.92,521.39,885.38,531,878.77,533.58Z" transform="translate(-831 -254.24)"/></svg>